<svg xmlns="http://www.w3.org/2000/svg" viewBox="0 0 131.42 48.22">
  <defs>
    <style>.cls-1{font-size:12px;font-family:PTMono-Regular, PT Mono;}.cls-1,.cls-2{fill:#640d23;}</style>
  </defs>
  <title>a11y with lindsey</title>
  <g id="with-lindsey">
    <text class="cls-1" transform="translate(81.84 40.4)">lindsey</text>
    <text class="cls-1" transform="translate(30.84 40.4)">with</text>
  </g>
  <g id="a11y-icon-body">
    <path class="cls-2" d="M74.78,29.49a12.89,12.89,0,0,0,7.91-11.88,1,1,0,0,0-2,0A10.89,10.89,0,0,1,73.34,27.9h0l-.09,0a10.63,10.63,0,0,1-3.4.55A10.89,10.89,0,0,1,58.93,17.61a1,1,0,1,0-2,0A12.89,12.89,0,0,0,68.88,30.45L66.93,45.9l-4.54-.31a1,1,0,0,0-1.07.93,1,1,0,0,0,.93,1.06l5.48.39h.07a1,1,0,0,0,1-.88L70.9,30.44a12.78,12.78,0,0,0,2-.33l4.24,15.07-4.31,1.47a1,1,0,0,0-.62,1.28,1,1,0,0,0,.94.67,1.26,1.26,0,0,0,.33-.05l5.2-1.79a1,1,0,0,0,.64-1.21ZM52.09,26.33H49.33s0,0,0-.08V1.38A1,1,0,0,0,47.88.5L41.39,3.89A1,1,0,0,0,41,5.24a1,1,0,0,0,1.35.42l5-2.63V26.25s0,.06,0,.08H44.59a1,1,0,0,0,0,2h7.5a1,1,0,0,0,0-2Zm-13,0H36.34a.19.19,0,0,0,0-.08V1.38A1,1,0,0,0,34.9.5L28.42,3.89a1,1,0,1,0,.92,1.77l5-2.63V26.25s0,.06,0,.08H31.61a1,1,0,0,0,0,2h7.5a1,1,0,0,0,0-2ZM21,17.33l2.57-3.25A1,1,0,0,0,22,12.84L19.33,16.2a12.64,12.64,0,0,0-5.45-1.7v-6a1,1,0,1,0-2,0v6A12.78,12.78,0,0,0,6,16.44l-2.86-3.6a1,1,0,1,0-1.56,1.24l2.81,3.55A12.87,12.87,0,0,0,0,27.33a1,1,0,0,0,2,0,10.89,10.89,0,0,1,21.77,0,1,1,0,0,0,2,0A12.86,12.86,0,0,0,21,17.33Z"/>
  </g>
  <g id="a11y-icon-eyeballs">
    <path class="cls-2" d="M16.53,23.69A3.65,3.65,0,1,1,12.88,20,3.64,3.64,0,0,1,16.53,23.69Z"/>
    <path class="cls-2" d="M69.81,25.34a3.65,3.65,0,1,0-3.64-3.64A3.65,3.65,0,0,0,69.81,25.34Z"/>
  </g>
</svg>
