<svg id="Layer_1" data-name="Layer 1" xmlns="http://www.w3.org/2000/svg" viewBox="0 0 805 203.3" width="201.25" height="50.825"><defs><style>.cls-1{fill:#000;}</style></defs><title>webflow</title><path class="cls-1" d="M259.93,79.5c0-14.5-14-29.9-38.34-29.9-27.29,0-57.26,20.1-61.84,60.2-4.69,40.5,20.41,58.5,45.71,58.5s38.54-9.9,52.08-23.1c-11.65-14.7-26.69-7.9-29.57-6.4a30.19,30.19,0,0,1-15.64,3.8c-9.76,0-19.72-4.4-19.72-22.7C255.15,113.7,259.93,94,259.93,79.5Zm-31,2.4c-.4,4.5-2.19,12.2-33.86,16.5,6.67-23.8,19.42-25.6,25.3-25.6A8.29,8.29,0,0,1,229,81.9ZM123,85.8s-13.45,42.4-14.54,45.9C108.06,128.1,98.2,52,98.2,52,75.29,52,63,68.4,56.57,85.7c0,0-16.33,42.5-17.73,46.1-.1-3.3-2.49-45.6-2.49-45.6C35,65,15.64,52.1,0,52.1L18.92,167.4c24-.1,36.95-16.4,43.72-33.7,0,0,14.44-37.5,15-39.2C77.78,96.1,88,167.4,88,167.4c24.1,0,37.05-15.3,44-32l33.76-83.3C142,52.1,129.47,68.4,123,85.8ZM348.37,49.4c-14.84,0-26.19,8.1-35.75,20v-.1L321.18,0c-19.72,0-35.75,17.2-38.84,42.8L267.4,166.5c11.36,0,23.41-3.3,29.88-11.7,5.78,7.5,14.44,13.5,27.29,13.5,33.26,0,56.07-38.8,56.07-75.2C380.44,59.9,364.41,49.4,348.37,49.4Zm-3.09,59.5c-3.48,20.3-14.74,34.1-25.59,34.1s-15.64-4.9-15.64-4.9c2.09-17.8,3.39-28.7,7.37-38.1s13.45-24.4,23.31-24.4C344.39,75.6,348.77,88.5,345.28,108.9ZM463.7,52.1H440.49l.1-1.2c1.6-15.2,5.18-23.2,17-24.5,8.07-.8,11.66-5,12.55-9.6.7-3.6,2.89-16.1,2.89-16.1-46.61-.3-61.25,19.9-65,50.7l-.1.7h-.5c-7.57,0-15.93,8.6-17.33,19.5l-.5,4h15.54L392.09,183.8l-4,19.4c.5,0,1.09.1,1.59.1,21.81-.8,35.76-18.1,38.84-43.2L438.7,75.6H446c7.17,0,15.54-7.2,17-19.2Zm120.7-2c-26.79,0-52.08,19.8-59.85,50.9s4,67.9,43.42,67.9,62-38.3,62-70.2C630,67,608.61,50.1,584.4,50.1Zm10.86,57.8c-1.39,14.1-7.57,35.5-24.5,35.5s-14.64-25-13-36.9c1.8-12.7,8.87-30.8,24.1-30.8C595.56,75.7,596.85,92,595.26,107.9ZM762.37,85.8s-13.44,42.4-14.54,45.9c-.39-3.6-10.25-79.7-10.25-79.7C714.67,52,702.42,68.4,696,85.7c0,0-16.34,42.5-17.73,46.1-.1-3.3-2.49-45.6-2.49-45.6C674.34,65,655,52.1,639.38,52.1L658.2,167.4c24-.1,36.95-16.4,43.72-33.7,0,0,14.44-37.5,14.94-39.2.1,1.6,10.36,72.9,10.36,72.9,24.1,0,37-15.3,44-32L805,52.1C781.3,52.1,768.75,68.4,762.37,85.8ZM485.61.7,466.09,158.8h0l-4,19.5c.49,0,1.09.1,1.59.1h0c21-.3,35.95-18.8,38.74-42.1l11.25-90.7C517.08,17.9,500.65.7,485.61.7Z"/></svg>